<svg width="101" height="32" viewBox="0 0 101 32" fill="none" xmlns="http://www.w3.org/2000/svg">
<path d="M10.3011 9.18182V10.7301H0.627841V9.18182H10.3011ZM3.80966 31V5.78693C3.80966 4.68845 4.06061 3.75095 4.5625 2.97443C5.06439 2.19792 5.72254 1.60606 6.53693 1.19886C7.3608 0.791666 8.24621 0.588068 9.19318 0.588068C9.69508 0.588068 10.1212 0.630681 10.4716 0.715908C10.8314 0.791666 11.1439 0.881628 11.4091 0.985795L10.8977 2.51989C10.6799 2.44413 10.4432 2.37784 10.1875 2.32102C9.94129 2.2642 9.64773 2.2358 9.30682 2.2358C8.20833 2.2358 7.30398 2.57197 6.59375 3.24432C5.88352 3.91667 5.52841 4.85417 5.52841 6.05682L5.5142 31H3.80966ZM20.9688 31.4688C19.7093 31.4688 18.554 31.2178 17.5028 30.7159C16.4612 30.214 15.6231 29.4801 14.9886 28.5142C14.3636 27.5483 14.0511 26.3741 14.0511 24.9915C14.0511 24.0824 14.2121 23.2822 14.5341 22.5909C14.8561 21.8996 15.3532 21.303 16.0256 20.8011C16.6979 20.2992 17.5597 19.8873 18.6108 19.5653C19.6619 19.2339 20.9167 18.9782 22.375 18.7983C23.483 18.6657 24.4725 18.5379 25.3438 18.4148C26.215 18.2822 26.8968 18.0786 27.3892 17.804C27.8911 17.5294 28.142 17.1127 28.142 16.554V15.6449C28.142 14.054 27.6402 12.7898 26.6364 11.8523C25.6326 10.9148 24.25 10.446 22.4886 10.446C20.9261 10.446 19.6098 10.7917 18.5398 11.483C17.4792 12.1648 16.7358 13.0455 16.3097 14.125L14.6761 13.5142C15.0928 12.4725 15.6941 11.6061 16.4801 10.9148C17.2756 10.2235 18.1847 9.70739 19.2074 9.36648C20.2396 9.02557 21.3191 8.85511 22.446 8.85511C23.4214 8.85511 24.3494 8.99242 25.2301 9.26705C26.1203 9.54167 26.911 9.95833 27.6023 10.517C28.303 11.0758 28.857 11.7907 29.2642 12.6619C29.6714 13.5237 29.875 14.5559 29.875 15.7585V31H28.142V27.0653H28.0142C27.6354 27.8797 27.1146 28.6231 26.4517 29.2955C25.7983 29.9583 25.0076 30.4886 24.0795 30.8864C23.161 31.2746 22.1241 31.4688 20.9688 31.4688ZM21.1392 29.8636C22.5028 29.8636 23.7102 29.5322 24.7614 28.8693C25.822 28.197 26.6506 27.2784 27.2472 26.1136C27.8438 24.9489 28.142 23.6278 28.142 22.1506V18.9403C27.9242 19.1297 27.607 19.3002 27.1903 19.4517C26.7831 19.5937 26.3191 19.7216 25.7983 19.8352C25.2869 19.9394 24.7472 20.0341 24.179 20.1193C23.6203 20.1951 23.0758 20.2661 22.5455 20.3324C20.9545 20.5218 19.6572 20.8153 18.6534 21.2131C17.6591 21.6013 16.9299 22.1127 16.4659 22.7472C16.0114 23.3816 15.7841 24.1487 15.7841 25.0483C15.7841 26.535 16.2955 27.7093 17.3182 28.571C18.3409 29.4328 19.6146 29.8636 21.1392 29.8636ZM38.8736 16.8523V31H37.1406V9.18182H38.831V12.6335H39.0014C39.5128 11.5066 40.3319 10.6023 41.4588 9.92045C42.5857 9.23864 43.9257 8.89773 45.4787 8.89773C46.9465 8.89773 48.2344 9.21023 49.3423 9.83523C50.4598 10.4602 51.331 11.3504 51.956 12.5057C52.5904 13.6515 52.9077 15.0199 52.9077 16.6108V31H51.1747V16.6818C51.1747 14.8258 50.6207 13.3343 49.5128 12.2074C48.4143 11.071 46.9607 10.5028 45.152 10.5028C43.9399 10.5028 42.8603 10.768 41.9134 11.2983C40.9664 11.8286 40.223 12.572 39.6832 13.5284C39.1435 14.4754 38.8736 15.5833 38.8736 16.8523ZM63.3622 9.18182L67.7656 17.2358L72.2401 9.18182H77.6804L71.1037 20.0909L77.794 31H72.3821L67.7656 23.1449L63.1918 31H57.7372L64.3849 20.0909L57.9077 9.18182H63.3622ZM90.3544 31.4261C88.2237 31.4261 86.3771 30.9574 84.8146 30.0199C83.2521 29.0824 82.04 27.7708 81.1783 26.0852C80.326 24.3996 79.8999 22.4299 79.8999 20.1761C79.8999 17.9223 80.326 15.9479 81.1783 14.2528C82.04 12.5578 83.2521 11.2415 84.8146 10.304C86.3771 9.36648 88.2237 8.89773 90.3544 8.89773C92.4851 8.89773 94.3317 9.36648 95.8942 10.304C97.4567 11.2415 98.6641 12.5578 99.5163 14.2528C100.378 15.9479 100.809 17.9223 100.809 20.1761C100.809 22.4299 100.378 24.3996 99.5163 26.0852C98.6641 27.7708 97.4567 29.0824 95.8942 30.0199C94.3317 30.9574 92.4851 31.4261 90.3544 31.4261ZM90.3828 27.3068C91.5381 27.3068 92.504 26.9896 93.2805 26.3551C94.0571 25.7112 94.6347 24.8494 95.0135 23.7699C95.4018 22.6903 95.5959 21.4877 95.5959 20.1619C95.5959 18.8267 95.4018 17.6193 95.0135 16.5398C94.6347 15.4508 94.0571 14.5843 93.2805 13.9403C92.504 13.2964 91.5381 12.9744 90.3828 12.9744C89.1991 12.9744 88.2143 13.2964 87.4283 13.9403C86.6518 14.5843 86.0694 15.4508 85.6811 16.5398C85.3023 17.6193 85.1129 18.8267 85.1129 20.1619C85.1129 21.4877 85.3023 22.6903 85.6811 23.7699C86.0694 24.8494 86.6518 25.7112 87.4283 26.3551C88.2143 26.9896 89.1991 27.3068 90.3828 27.3068Z" fill="black"/>
</svg>
